<svg width="89" height="18" viewBox="0 0 89 18" fill="none" xmlns="http://www.w3.org/2000/svg">
<g filter="url(#filter0_d_1_2)">
<path d="M7.06592 0.335449H9.62402L11.3887 7.79395C11.4225 7.92513 11.4606 8.0415 11.5029 8.14307C11.541 8.22347 11.6257 8.28906 11.7568 8.33984C11.8669 8.38639 11.943 8.43294 11.9854 8.47949C12.0277 8.52604 12.0488 8.58952 12.0488 8.66992C12.0488 8.88997 11.8838 9 11.5537 9H8.38623C8.25928 9 8.15771 8.97038 8.08154 8.91113C8.00537 8.84766 7.96729 8.76514 7.96729 8.66357C7.96729 8.57894 7.98421 8.51546 8.01807 8.47314C8.05192 8.43083 8.12809 8.37793 8.24658 8.31445C8.33122 8.27214 8.39046 8.22559 8.42432 8.1748C8.45817 8.12402 8.4751 8.06055 8.4751 7.98438C8.4751 7.91243 8.46875 7.84896 8.45605 7.79395L8.25293 6.87354H6.48193L6.65332 6.11816H8.0752L6.90723 0.95752L7.06592 0.335449ZM6.62793 1.94775L6.95166 3.26172L5.82812 7.3623C5.79427 7.48079 5.77734 7.59082 5.77734 7.69238C5.77734 7.95898 5.90218 8.14941 6.15186 8.26367L6.37402 8.36523C6.51367 8.42871 6.5835 8.53451 6.5835 8.68262C6.5835 8.89421 6.42904 9 6.12012 9H4.50781C4.35124 9 4.2264 8.96826 4.1333 8.90479C4.04443 8.83708 4 8.74609 4 8.63184C4 8.50911 4.0931 8.40755 4.2793 8.32715C4.4528 8.25098 4.57975 8.18327 4.66016 8.12402C4.74479 8.06055 4.8252 7.97591 4.90137 7.87012C5.01986 7.69661 5.11719 7.46598 5.19336 7.17822L6.62793 1.94775ZM16.1621 0.335449L19.5391 6.20068V9H17.8062L13.4961 1.57324C13.403 1.41243 13.3268 1.30029 13.2676 1.23682C13.2083 1.17334 13.1322 1.12679 13.0391 1.09717L12.7979 1.0083C12.7344 0.987142 12.6836 0.949056 12.6455 0.894043C12.6074 0.83903 12.5884 0.777669 12.5884 0.709961C12.5884 0.638021 12.6074 0.572428 12.6455 0.513184C12.6836 0.449707 12.7344 0.405273 12.7979 0.379883C12.8698 0.35026 13.0645 0.335449 13.3818 0.335449H16.1621ZM13.5024 2.56348L14.1753 3.68066V7.08301C14.1753 7.37923 14.224 7.62256 14.3213 7.81299C14.4229 8.00342 14.5815 8.15999 14.7974 8.28271L14.9878 8.39062C15.0978 8.4541 15.1528 8.54932 15.1528 8.67627C15.1528 8.7736 15.1126 8.854 15.0322 8.91748C14.9645 8.97249 14.8249 9 14.6133 9H13.147C12.7619 9 12.5693 8.88997 12.5693 8.66992C12.5693 8.59375 12.5884 8.53451 12.6265 8.49219C12.6688 8.44564 12.7576 8.38428 12.8931 8.30811C13.2993 8.08382 13.5024 7.67546 13.5024 7.08301V2.56348ZM19.5391 5.18506L18.8662 4.04883V2.29053C18.8662 1.93506 18.8133 1.66423 18.7075 1.47803C18.606 1.2876 18.424 1.12467 18.1616 0.989258C18.0728 0.94694 18.0114 0.902507 17.9775 0.855957C17.9437 0.805176 17.9268 0.741699 17.9268 0.665527C17.9268 0.55127 17.9627 0.46875 18.0347 0.417969C18.1108 0.362956 18.2314 0.335449 18.3965 0.335449H19.9834C20.1992 0.335449 20.341 0.369303 20.4087 0.437012C20.4806 0.50472 20.5166 0.585124 20.5166 0.678223C20.5166 0.76709 20.4954 0.834798 20.4531 0.881348C20.415 0.923665 20.3198 0.98291 20.1675 1.05908C19.9432 1.17334 19.7739 1.34896 19.6597 1.58594C19.5793 1.75944 19.5391 1.9943 19.5391 2.29053V5.18506ZM25.9946 5.02637V7.79395C25.9946 7.95898 26.0264 8.07747 26.0898 8.14941C26.1237 8.19173 26.1554 8.21924 26.1851 8.23193C26.2147 8.2404 26.312 8.26579 26.4771 8.30811C26.6802 8.35465 26.7817 8.47103 26.7817 8.65723C26.7817 8.77995 26.7246 8.87305 26.6104 8.93652C26.5426 8.97884 26.4115 9 26.2168 9H26.001H23.1699H22.9604C22.77 9 22.6367 8.97461 22.5605 8.92383C22.4505 8.85612 22.3955 8.76725 22.3955 8.65723C22.3955 8.47103 22.4971 8.35465 22.7002 8.30811C22.8652 8.26579 22.9626 8.2404 22.9922 8.23193C23.0218 8.21924 23.0514 8.19173 23.0811 8.14941C23.1445 8.07747 23.1763 7.95898 23.1763 7.79395V5.64844L21.3799 1.36377C21.3122 1.20296 21.217 1.08659 21.0942 1.01465C20.98 0.942708 20.9059 0.885579 20.8721 0.843262C20.8424 0.800944 20.8276 0.741699 20.8276 0.665527C20.8276 0.445475 20.9884 0.335449 21.3101 0.335449H24.4204C24.5854 0.335449 24.6997 0.354492 24.7632 0.392578C24.869 0.460286 24.9219 0.549154 24.9219 0.65918C24.9219 0.794596 24.8605 0.900391 24.7378 0.976562L24.5537 1.09082C24.4818 1.13737 24.4458 1.20719 24.4458 1.30029C24.4458 1.40609 24.4691 1.50977 24.5156 1.61133L25.9946 5.02637ZM26.2422 4.42334L25.8867 3.5918L26.5532 2.1001C26.6082 1.97314 26.6357 1.79964 26.6357 1.57959C26.6357 1.33415 26.5003 1.15853 26.2295 1.05273C26.0814 0.99349 25.984 0.942708 25.9375 0.900391C25.8952 0.853841 25.874 0.784017 25.874 0.690918C25.874 0.57666 25.9121 0.489909 25.9883 0.430664C26.0391 0.392578 26.0962 0.367188 26.1597 0.354492C26.2231 0.341797 26.3332 0.335449 26.4897 0.335449H28.0576C28.3538 0.335449 28.502 0.453939 28.502 0.690918C28.502 0.775553 28.4808 0.841146 28.4385 0.887695C28.4004 0.934245 28.3242 0.98291 28.21 1.03369C28.0026 1.12679 27.8545 1.21989 27.7656 1.31299C27.6387 1.4484 27.5329 1.60286 27.4482 1.77637L27.3022 2.1001L26.2422 4.42334ZM35.8145 0.164062V0.932129C35.5648 0.970215 35.3786 1.08024 35.2559 1.26221C35.1331 1.44417 35.0718 1.70443 35.0718 2.04297V7.28613V7.55908C35.0718 7.65641 35.0908 7.76009 35.1289 7.87012C35.1712 7.97591 35.2241 8.06689 35.2876 8.14307C35.3553 8.2277 35.4272 8.28906 35.5034 8.32715C35.5796 8.361 35.6833 8.38428 35.8145 8.39697V9.17139C34.9935 9.17139 34.2804 8.95768 33.6753 8.53027C33.1421 8.15365 32.7401 7.64795 32.4692 7.01318C32.1984 6.37419 32.063 5.61882 32.063 4.74707C32.063 4.10807 32.1497 3.51351 32.3232 2.96338C32.501 2.40902 32.757 1.92871 33.0913 1.52246C33.4299 1.11198 33.834 0.781901 34.3037 0.532227C34.7777 0.282552 35.2326 0.157715 35.6685 0.157715L35.8145 0.164062ZM36.3159 0.938477V0.17041C36.5233 0.204264 36.6904 0.240234 36.8174 0.27832C36.9486 0.316406 37.1834 0.39681 37.522 0.519531C37.7378 0.595703 37.8817 0.633789 37.9536 0.633789C38.0763 0.633789 38.1694 0.578776 38.2329 0.46875L38.3154 0.316406C38.3662 0.214844 38.4614 0.164062 38.6011 0.164062C38.7153 0.164062 38.8021 0.197917 38.8613 0.265625C38.9248 0.333333 38.9565 0.43278 38.9565 0.563965V3.20459C38.9565 3.37386 38.9185 3.49658 38.8423 3.57275C38.7661 3.64893 38.6794 3.68701 38.582 3.68701C38.4805 3.68701 38.3979 3.65527 38.3345 3.5918C38.2752 3.52409 38.2266 3.41618 38.1885 3.26807C38.0996 2.93376 38.0129 2.67139 37.9282 2.48096C37.7463 2.07894 37.5389 1.75309 37.3062 1.50342C37.1496 1.33415 36.993 1.20508 36.8364 1.11621C36.6799 1.02311 36.5063 0.963867 36.3159 0.938477ZM36.335 9.17139V8.39697C36.665 8.37158 37.012 8.24674 37.376 8.02246C37.5706 7.89974 37.7441 7.73682 37.8965 7.53369C38.0488 7.32633 38.1631 7.09993 38.2393 6.85449C38.2816 6.71908 38.3302 6.62386 38.3853 6.56885C38.4445 6.5096 38.5207 6.47998 38.6138 6.47998C38.7153 6.47998 38.8 6.51807 38.8677 6.59424C38.9354 6.67041 38.9692 6.76562 38.9692 6.87988C38.9692 7.07031 38.8952 7.30094 38.7471 7.57178C38.6032 7.84261 38.417 8.09229 38.1885 8.3208C37.9092 8.6001 37.6214 8.80745 37.3252 8.94287C37.0332 9.07829 36.7031 9.15446 36.335 9.17139ZM42.4731 0.335449H45.0312L46.7959 7.79395C46.8298 7.92513 46.8678 8.0415 46.9102 8.14307C46.9482 8.22347 47.0329 8.28906 47.1641 8.33984C47.2741 8.38639 47.3503 8.43294 47.3926 8.47949C47.4349 8.52604 47.4561 8.58952 47.4561 8.66992C47.4561 8.88997 47.291 9 46.9609 9H43.7935C43.6665 9 43.5649 8.97038 43.4888 8.91113C43.4126 8.84766 43.3745 8.76514 43.3745 8.66357C43.3745 8.57894 43.3914 8.51546 43.4253 8.47314C43.4591 8.43083 43.5353 8.37793 43.6538 8.31445C43.7384 8.27214 43.7977 8.22559 43.8315 8.1748C43.8654 8.12402 43.8823 8.06055 43.8823 7.98438C43.8823 7.91243 43.876 7.84896 43.8633 7.79395L43.6602 6.87354H41.8892L42.0605 6.11816H43.4824L42.3145 0.95752L42.4731 0.335449ZM42.0352 1.94775L42.3589 3.26172L41.2354 7.3623C41.2015 7.48079 41.1846 7.59082 41.1846 7.69238C41.1846 7.95898 41.3094 8.14941 41.5591 8.26367L41.7812 8.36523C41.9209 8.42871 41.9907 8.53451 41.9907 8.68262C41.9907 8.89421 41.8363 9 41.5273 9H39.915C39.7585 9 39.6336 8.96826 39.5405 8.90479C39.4517 8.83708 39.4072 8.74609 39.4072 8.63184C39.4072 8.50911 39.5003 8.40755 39.6865 8.32715C39.86 8.25098 39.987 8.18327 40.0674 8.12402C40.152 8.06055 40.2324 7.97591 40.3086 7.87012C40.4271 7.69661 40.5244 7.46598 40.6006 7.17822L42.0352 1.94775ZM51.4424 0.335449V7.79395C51.4424 7.95898 51.4741 8.07747 51.5376 8.14941C51.5715 8.19173 51.6032 8.21924 51.6328 8.23193C51.6624 8.2404 51.7598 8.26579 51.9248 8.30811C52.1279 8.35465 52.2295 8.47103 52.2295 8.65723C52.2295 8.76725 52.1745 8.85612 52.0645 8.92383C51.984 8.97461 51.8507 9 51.6646 9H51.4487H48.6177H48.4526C48.3003 9 48.1818 8.97249 48.0972 8.91748C48.0168 8.85824 47.9766 8.77572 47.9766 8.66992C47.9766 8.49642 48.0612 8.38216 48.2305 8.32715C48.3701 8.2806 48.4505 8.25309 48.4717 8.24463C48.4971 8.23193 48.5225 8.20654 48.5479 8.16846C48.5986 8.10075 48.624 7.99284 48.624 7.84473V1.49072C48.624 1.34261 48.5986 1.2347 48.5479 1.16699C48.5225 1.12891 48.4971 1.10563 48.4717 1.09717C48.4505 1.08447 48.3701 1.05485 48.2305 1.0083C48.0612 0.953288 47.9766 0.83903 47.9766 0.665527C47.9766 0.559733 48.0168 0.479329 48.0972 0.424316C48.1818 0.365072 48.3003 0.335449 48.4526 0.335449H48.6177H51.4424ZM51.9819 5.68018V5.00098C52.1639 4.95866 52.2909 4.91423 52.3628 4.86768C52.439 4.82113 52.5046 4.74919 52.5596 4.65186C52.6484 4.48682 52.6929 4.26465 52.6929 3.98535V1.9541C52.6929 1.75521 52.6781 1.6071 52.6484 1.50977C52.6188 1.41243 52.5596 1.32357 52.4707 1.24316C52.348 1.12467 52.1829 1.05062 51.9756 1.021V0.335449C52.8473 0.335449 53.4906 0.417969 53.9053 0.583008C54.3835 0.773438 54.7622 1.06543 55.0415 1.45898C55.325 1.861 55.4668 2.354 55.4668 2.93799C55.4668 3.58968 55.3229 4.12288 55.0352 4.5376C54.7474 4.94808 54.3454 5.25065 53.8291 5.44531C53.4017 5.60189 52.786 5.68018 51.9819 5.68018Z" fill="white"/>
<path d="M63.0205 0.335449V7.79395C63.0205 7.95898 63.0522 8.07747 63.1157 8.14941C63.1496 8.19173 63.1813 8.21924 63.2109 8.23193C63.2406 8.2404 63.3379 8.26579 63.5029 8.30811C63.7061 8.35465 63.8076 8.47103 63.8076 8.65723C63.8076 8.76725 63.7526 8.85612 63.6426 8.92383C63.5622 8.97461 63.4289 9 63.2427 9H63.0269H60.1958H60.0308C59.8784 9 59.7599 8.97249 59.6753 8.91748C59.5949 8.85824 59.5547 8.77572 59.5547 8.66992C59.5547 8.49642 59.6393 8.38216 59.8086 8.32715C59.9482 8.2806 60.0286 8.25309 60.0498 8.24463C60.0752 8.23193 60.1006 8.20654 60.126 8.16846C60.1768 8.10075 60.2021 7.99284 60.2021 7.84473V1.49072C60.2021 1.34261 60.1768 1.2347 60.126 1.16699C60.1006 1.12891 60.0752 1.10563 60.0498 1.09717C60.0286 1.08447 59.9482 1.05485 59.8086 1.0083C59.6393 0.953288 59.5547 0.83903 59.5547 0.665527C59.5547 0.559733 59.5949 0.479329 59.6753 0.424316C59.7599 0.365072 59.8784 0.335449 60.0308 0.335449H60.1958H63.0205ZM63.5601 5.68018V5.00098C63.742 4.95866 63.869 4.91423 63.9409 4.86768C64.0171 4.82113 64.0827 4.74919 64.1377 4.65186C64.2266 4.48682 64.271 4.26465 64.271 3.98535V1.9541C64.271 1.75521 64.2562 1.6071 64.2266 1.50977C64.1969 1.41243 64.1377 1.32357 64.0488 1.24316C63.9261 1.12467 63.7611 1.05062 63.5537 1.021V0.335449C64.4255 0.335449 65.0687 0.417969 65.4834 0.583008C65.9616 0.773438 66.3403 1.06543 66.6196 1.45898C66.9032 1.861 67.0449 2.354 67.0449 2.93799C67.0449 3.58968 66.901 4.12288 66.6133 4.5376C66.3255 4.94808 65.9235 5.25065 65.4072 5.44531C64.9798 5.60189 64.3641 5.68018 63.5601 5.68018ZM71.2979 0.335449V7.79395C71.2979 7.95898 71.3296 8.07747 71.3931 8.14941C71.4269 8.19173 71.4587 8.21924 71.4883 8.23193C71.5179 8.2404 71.6152 8.26579 71.7803 8.30811C71.9834 8.35465 72.085 8.47103 72.085 8.65723C72.085 8.76725 72.0299 8.85612 71.9199 8.92383C71.8395 8.97461 71.7062 9 71.52 9H71.3042H68.4731H68.3081C68.1558 9 68.0373 8.97249 67.9526 8.91748C67.8722 8.85824 67.832 8.77572 67.832 8.66992C67.832 8.49642 67.9167 8.38216 68.0859 8.32715C68.2256 8.2806 68.306 8.25309 68.3271 8.24463C68.3525 8.23193 68.3779 8.20654 68.4033 8.16846C68.4541 8.10075 68.4795 7.99284 68.4795 7.84473V1.49072C68.4795 1.34261 68.4541 1.2347 68.4033 1.16699C68.3779 1.12891 68.3525 1.10563 68.3271 1.09717C68.306 1.08447 68.2256 1.05485 68.0859 1.0083C67.9167 0.953288 67.832 0.83903 67.832 0.665527C67.832 0.559733 67.8722 0.479329 67.9526 0.424316C68.0373 0.365072 68.1558 0.335449 68.3081 0.335449H68.4731H71.2979ZM73.2466 4.75342C73.6359 4.81266 73.9342 4.87826 74.1416 4.9502C74.3532 5.02214 74.5436 5.11947 74.7129 5.24219C74.8906 5.37337 75.026 5.52995 75.1191 5.71191C75.2165 5.89388 75.2651 6.08643 75.2651 6.28955V7.60352C75.2651 7.73893 75.3096 7.80664 75.3984 7.80664C75.4323 7.80664 75.4598 7.79818 75.481 7.78125C75.5063 7.76009 75.5402 7.72201 75.5825 7.66699C75.6883 7.52311 75.7962 7.45117 75.9062 7.45117C75.9782 7.45117 76.0501 7.48926 76.1221 7.56543C76.194 7.6416 76.23 7.71777 76.23 7.79395C76.23 7.92513 76.1665 8.08594 76.0396 8.27637C75.9168 8.46257 75.7624 8.62972 75.5762 8.77783C75.4027 8.91748 75.2144 9.01693 75.0112 9.07617C74.8081 9.13965 74.569 9.17139 74.2939 9.17139C73.7354 9.17139 73.2995 9.0127 72.9863 8.69531C72.6732 8.3737 72.5166 7.92725 72.5166 7.35596V6.28955C72.5166 6.05257 72.5145 5.91504 72.5103 5.87695C72.4891 5.70768 72.4299 5.56169 72.3325 5.43896C72.2098 5.29085 72.0342 5.2041 71.8057 5.17871V4.49951C72.0342 4.46566 72.1971 4.40641 72.2944 4.32178C72.3791 4.24561 72.4362 4.15885 72.4658 4.06152C72.4997 3.96419 72.5166 3.82031 72.5166 3.62988V1.94775C72.5166 1.68115 72.4637 1.48226 72.3579 1.35107C72.2563 1.21989 72.0701 1.11621 71.7993 1.04004V0.335449H71.9644C72.4341 0.335449 72.834 0.352376 73.1641 0.38623C73.6549 0.43278 74.0929 0.593587 74.478 0.868652C75.0324 1.26221 75.3096 1.82292 75.3096 2.55078C75.3096 3.14746 75.1234 3.63623 74.751 4.01709C74.5944 4.1779 74.4103 4.30908 74.1987 4.41064C73.9914 4.51221 73.674 4.62646 73.2466 4.75342ZM80.2607 0.849609C80.0449 0.925781 79.8926 1.02946 79.8037 1.16064C79.7148 1.29183 79.6704 1.48438 79.6704 1.73828V7.41309C79.6704 7.78548 79.7212 8.04785 79.8228 8.2002C79.9032 8.32715 80.0492 8.41813 80.2607 8.47314V9.17139C79.3213 9.09521 78.5342 8.74186 77.8994 8.11133C77.0742 7.29036 76.6616 6.14567 76.6616 4.67725C76.6616 3.94092 76.7695 3.27653 76.9854 2.68408C77.2054 2.0874 77.5291 1.58171 77.9565 1.16699C78.2824 0.849609 78.6336 0.608398 79.0103 0.443359C79.3869 0.27832 79.8037 0.185221 80.2607 0.164062V0.849609ZM80.7812 0.849609V0.164062C81.2383 0.185221 81.6551 0.27832 82.0317 0.443359C82.4126 0.608398 82.766 0.849609 83.0918 1.16699C83.9551 2.00911 84.3867 3.1792 84.3867 4.67725C84.3867 6.14567 83.9741 7.29036 83.1489 8.11133C82.5142 8.74609 81.7249 9.09945 80.7812 9.17139V8.47314C80.8913 8.44775 80.9759 8.41602 81.0352 8.37793C81.0986 8.33561 81.1558 8.27637 81.2065 8.2002C81.3208 8.02669 81.3779 7.76432 81.3779 7.41309V1.73828C81.3779 1.514 81.3398 1.33626 81.2637 1.20508C81.2129 1.11621 81.1515 1.04639 81.0796 0.995605C81.0119 0.944824 80.9124 0.896159 80.7812 0.849609Z" fill="#0A05FF"/>
</g>
<defs>
<filter id="filter0_d_1_2" x="0" y="0.157715" width="88.3867" height="17.0137" filterUnits="userSpaceOnUse" color-interpolation-filters="sRGB">
<feFlood flood-opacity="0" result="BackgroundImageFix"/>
<feColorMatrix in="SourceAlpha" type="matrix" values="0 0 0 0 0 0 0 0 0 0 0 0 0 0 0 0 0 0 127 0" result="hardAlpha"/>
<feOffset dy="4"/>
<feGaussianBlur stdDeviation="2"/>
<feComposite in2="hardAlpha" operator="out"/>
<feColorMatrix type="matrix" values="0 0 0 0 0 0 0 0 0 0 0 0 0 0 0 0 0 0 0.25 0"/>
<feBlend mode="normal" in2="BackgroundImageFix" result="effect1_dropShadow_1_2"/>
<feBlend mode="normal" in="SourceGraphic" in2="effect1_dropShadow_1_2" result="shape"/>
</filter>
</defs>
</svg>
